<svg width="25" height="24" viewBox="0 0 25 24" fill="none" xmlns="http://www.w3.org/2000/svg">
<path d="M5.95383 2.47238C5.67263 2.75367 5.51465 3.13514 5.51465 3.53288C5.51465 3.93063 5.67263 4.31209 5.95383 4.59338L13.3788 12.0184L5.95383 19.4434C5.6806 19.7263 5.52941 20.1052 5.53282 20.4985C5.53624 20.8918 5.69399 21.268 5.97211 21.5461C6.25022 21.8242 6.62644 21.982 7.01973 21.9854C7.41303 21.9888 7.79193 21.8376 8.07483 21.5644L16.5603 13.0789C16.8415 12.7976 16.9995 12.4161 16.9995 12.0184C16.9995 11.6206 16.8415 11.2392 16.5603 10.9579L8.07483 2.47238C7.79354 2.19118 7.41208 2.0332 7.01433 2.0332C6.61659 2.0332 6.23513 2.19118 5.95383 2.47238V2.47238Z"/>
</svg>
