<svg width="25" height="24" viewBox="0 0 25 24" fill="none" xmlns="http://www.w3.org/2000/svg">
<path d="M19.0462 2.47238C19.3274 2.75367 19.4853 3.13514 19.4853 3.53288C19.4853 3.93063 19.3274 4.31209 19.0462 4.59338L11.6212 12.0184L19.0462 19.4434C19.3194 19.7263 19.4706 20.1052 19.4672 20.4985C19.4638 20.8918 19.306 21.268 19.0279 21.5461C18.7498 21.8242 18.3736 21.982 17.9803 21.9854C17.587 21.9888 17.2081 21.8376 16.9252 21.5644L8.43967 13.0789C8.15846 12.7976 8.00049 12.4161 8.00049 12.0184C8.00049 11.6206 8.15846 11.2392 8.43967 10.9579L16.9252 2.47238C17.2065 2.19118 17.5879 2.0332 17.9857 2.0332C18.3834 2.0332 18.7649 2.19118 19.0462 2.47238Z"/>
</svg>
