<svg width="701" height="701" viewBox="0 0 701 701" fill="none" xmlns="http://www.w3.org/2000/svg">
<path d="M87.5201 655.627C84.2753 657.798 82.3274 661.439 82.3274 665.335V688.668C82.3274 695.121 87.5566 700.335 93.9941 700.335H210.661C217.098 700.335 222.327 695.121 222.327 688.668V665.335C222.327 661.439 220.38 657.798 217.135 655.627L187.328 635.763V560.336H210.661C217.099 560.336 222.328 555.122 222.328 548.669V525.336C222.328 506.039 206.625 490.336 187.328 490.336H117.328C98.0307 490.336 82.3281 506.039 82.3281 525.336V548.669C82.3281 555.122 87.5573 560.336 93.9947 560.336H117.328V635.763L87.5201 655.627ZM105.66 525.335C105.66 518.897 110.9 513.668 117.327 513.668H187.327C193.754 513.668 198.993 518.897 198.993 525.335V537.001H105.66V525.335ZM163.993 560.335V642.001C163.993 645.897 165.941 649.538 169.186 651.71L198.993 671.573V677.001H105.659V671.573L135.466 651.704C138.711 649.538 140.659 645.897 140.659 642.001V560.334L163.993 560.335Z" />
<path d="M285.853 655.627C282.609 657.798 280.661 661.439 280.661 665.335V688.668C280.661 695.121 285.89 700.335 292.327 700.335H408.994C415.431 700.335 420.661 695.121 420.661 688.668V665.335C420.661 661.439 418.713 657.798 415.468 655.627L385.661 635.763V560.336H408.995C415.432 560.336 420.661 555.122 420.661 548.669V525.336C420.661 506.039 404.959 490.336 385.661 490.336H315.661C296.364 490.336 280.661 506.039 280.661 525.336V548.669C280.661 555.122 285.89 560.336 292.328 560.336H315.661V635.763L285.853 655.627ZM303.993 525.335C303.993 518.897 309.233 513.668 315.66 513.668H385.66C392.087 513.668 397.327 518.897 397.327 525.335V537.001H303.993V525.335ZM362.327 560.335V642.001C362.327 645.897 364.274 649.538 367.519 651.71L397.326 671.573V677.001H303.993V671.573L333.799 651.704C337.044 649.538 338.992 645.897 338.992 642.001V560.334L362.327 560.335Z" />
<path d="M484.187 655.627C480.942 657.798 478.994 661.439 478.994 665.335V688.668C478.994 695.121 484.223 700.335 490.661 700.335H607.327C613.765 700.335 618.994 695.121 618.994 688.668V665.335C618.994 661.439 617.046 657.798 613.801 655.627L583.995 635.763V560.336H607.328C613.766 560.336 618.995 555.122 618.995 548.669V525.336C618.995 506.039 603.292 490.336 583.995 490.336H513.995C494.697 490.336 478.995 506.039 478.995 525.336V548.669C478.995 555.122 484.224 560.336 490.661 560.336H513.995V635.763L484.187 655.627ZM502.327 525.335C502.327 518.897 507.566 513.668 513.993 513.668H583.993C590.421 513.668 595.66 518.897 595.66 525.335V537.001H502.327V525.335ZM560.66 560.335V642.001C560.66 645.897 562.608 649.538 565.853 651.71L595.659 671.573V677.001H502.326V671.573L532.133 651.704C535.378 649.538 537.325 645.897 537.325 642.001V560.334L560.66 560.335Z" />
<path d="M0.666748 443.666H35.6667V700.333H59.0001V443.666H642.333V700.333H665.667V443.666H700.667V420.333H0.666748V443.666Z" />
<path d="M689 187H12.3334C5.89595 187 0.666748 192.214 0.666748 198.667V385.333C0.666748 391.786 5.89595 397 12.3334 397H689C695.438 397 700.667 391.786 700.667 385.333V198.667C700.667 192.214 695.438 187 689 187ZM70.6668 315.333V303.667H94.0001V315.333C94.0001 321.771 88.7605 327 82.3334 327C75.9064 327 70.6668 321.771 70.6668 315.333ZM164 315.333V303.667H187.333V315.333C187.333 321.771 182.094 327 175.667 327C169.24 327 164 321.771 164 315.333ZM269 373.667V327H292.333V373.667H269ZM409 373.667V342.203L430.375 310.14C431.646 308.229 432.333 305.963 432.333 303.666H455.666C455.666 305.963 456.354 308.229 457.625 310.14L479 342.203V373.667H409ZM455.667 280.333H432.333V257H455.667V280.333ZM560.667 373.667V342.203L582.041 310.14C583.312 308.229 584 305.963 584 303.666H607.333C607.333 305.963 608.021 308.229 609.292 310.14L630.666 342.203V373.667H560.667ZM607.333 280.333H584V257H607.333V280.333ZM677.333 373.667H654V338.667C654 336.37 653.313 334.104 652.042 332.193L630.667 300.13V245.333C630.667 238.88 625.438 233.666 619 233.666H572.334C565.896 233.666 560.667 238.88 560.667 245.333V300.13L539.292 332.193C538.022 334.104 537.334 336.37 537.334 338.667V373.667H502.334V338.667C502.334 336.37 501.646 334.104 500.376 332.193L479.001 300.13V245.333C479.001 238.88 473.772 233.666 467.334 233.666H420.668C414.23 233.666 409.001 238.88 409.001 245.333V300.13L387.626 332.193C386.355 334.104 385.668 336.37 385.668 338.667V373.667H315.668V315.333C315.668 308.88 310.439 303.667 304.001 303.667H257.334C250.897 303.667 245.668 308.88 245.668 315.333V373.667H187.334V348.188C200.881 343.36 210.668 330.527 210.668 315.333V292C210.668 285.547 205.439 280.333 199.001 280.333H152.334C145.897 280.333 140.668 285.547 140.668 292V315.333C140.668 330.521 150.454 343.355 164.001 348.188V373.667H94.0011V348.188C107.548 343.36 117.334 330.527 117.334 315.333V292C117.334 285.547 112.105 280.333 105.668 280.333H59.0011C52.5637 280.333 47.3345 285.547 47.3345 292V315.333C47.3345 330.521 57.1209 343.355 70.6678 348.188V373.667H24.0012V210.333H677.334L677.333 373.667Z" />
<path d="M105.667 163.667C124.964 163.667 140.667 147.964 140.667 128.667V117H175.667C180.38 117 184.641 114.167 186.448 109.802C188.255 105.437 187.255 100.422 183.917 97.0832L117.333 30.5045V0.33252H93.9994V30.5045L27.4154 97.0885C24.0769 100.427 23.0769 105.443 24.8842 109.807C26.6915 114.167 30.9519 117 35.6654 117H70.6654V128.667C70.6654 147.964 86.3681 163.667 105.665 163.667L105.667 163.667ZM117.333 128.667C117.333 135.104 112.094 140.333 105.667 140.333C99.2397 140.333 94.0001 135.104 94.0001 128.667V117H117.333V128.667ZM105.667 51.8279L147.505 93.6665H63.8281L105.667 51.8279Z" />
<path d="M607.333 0.333008H584V30.505L517.416 97.089C514.077 100.428 513.077 105.443 514.885 109.808C516.692 114.167 520.953 117 525.666 117H560.666V128.667C560.666 147.964 576.369 163.667 595.666 163.667C614.963 163.667 630.666 147.964 630.666 128.667V117H665.666C670.38 117 674.64 114.167 676.447 109.803C678.255 105.438 677.255 100.422 673.916 97.0838L607.332 30.5051L607.333 0.333008ZM607.333 128.666C607.333 135.104 602.094 140.333 595.667 140.333C589.24 140.333 584 135.104 584 128.666V117H607.333V128.666ZM619 93.6663H553.828L595.667 51.8277L637.505 93.6663H619Z" />
<path d="M350.667 163.667C369.964 163.667 385.667 147.964 385.667 128.667V117H420.667C425.38 117 429.641 114.167 431.448 109.802C433.255 105.437 432.255 100.422 428.917 97.0832L362.333 30.5045V0.33252H338.999V30.5045L272.415 97.0885C269.077 100.427 268.077 105.443 269.884 109.807C271.691 114.167 275.952 117 280.665 117H315.665V128.667C315.665 147.964 331.368 163.667 350.665 163.667L350.667 163.667ZM362.333 128.667C362.333 135.104 357.094 140.333 350.667 140.333C344.24 140.333 339 135.104 339 128.667V117H362.333V128.667ZM350.667 51.8279L392.505 93.6665H308.828L350.667 51.8279Z" />
</svg>
