<svg width="547" height="547" viewBox="0 0 547 547" fill="none" xmlns="http://www.w3.org/2000/svg">
<path d="M531.653 314.186L483.175 282.452C483.456 276.368 483.435 270.223 483.154 264.102L531.575 232.405C545.054 223.671 550.559 205.878 544.398 191.02L523.247 140.025C517.258 125.52 500.435 116.541 484.982 119.79L428.274 131.645C424.128 127.129 419.816 122.78 415.321 118.671L427.175 62.0199C430.461 46.5466 421.555 29.7279 406.962 23.6972L355.926 2.54658C341.499 -3.42742 322.999 2.37991 314.562 15.333L282.848 63.8116C276.723 63.5512 270.661 63.5304 264.52 63.8116L232.823 15.353C224.365 2.37898 205.85 -3.46436 191.438 2.54564L140.443 23.6963C125.62 29.7796 116.907 46.2643 120.208 61.983L132.042 118.691C127.526 122.837 123.193 127.149 119.089 131.644L62.3806 119.79C46.9433 116.618 30.1259 125.504 24.1153 140.025L2.96459 191.041C-3.19688 205.901 2.32917 223.686 15.751 232.405L64.2297 264.118C63.9484 270.243 63.9484 276.363 64.2088 282.446L15.8075 314.143C2.31282 322.914 -3.19783 340.727 2.98457 355.545L24.1152 406.561C30.1256 421.123 47.4272 429.987 62.3806 426.774L119.089 414.92C123.234 419.456 127.563 423.805 132.063 427.909L120.208 484.603C116.922 500.3 125.62 516.748 140.422 522.868L191.458 544.019C195.416 545.659 199.635 546.482 204.041 546.482C215.671 546.482 226.702 540.639 232.828 531.269L264.525 482.81C270.593 483.071 276.713 483.071 282.894 482.789L314.572 531.191C323.03 544.18 341.432 549.972 355.973 544.035L406.932 522.884C421.792 516.78 430.51 500.316 427.202 484.619L415.348 427.911C419.864 423.765 424.197 419.452 428.322 414.937L485.016 426.791C487.162 427.218 489.385 427.463 491.625 427.463C505.401 427.463 518.13 419.082 523.302 406.556L544.417 355.54C550.568 340.676 545.063 322.889 531.657 314.185L531.653 314.186ZM489.899 389.676L425.216 376.16C418.419 374.722 411.383 377.243 406.961 382.597C399.81 391.332 391.748 399.379 382.992 406.545C377.617 410.951 375.133 417.988 376.554 424.821L390.07 489.483L344.45 508.712L308.106 453.181C304.617 447.879 298.737 444.723 292.481 444.723C291.866 444.723 291.247 444.759 290.617 444.837C279.247 445.978 267.898 445.978 256.757 444.837C249.871 444.108 243.111 447.374 239.267 453.181L203.09 508.452L157.283 489.488L170.799 424.848C172.216 418.035 169.737 411.014 164.362 406.593C155.679 399.463 147.616 391.38 140.378 382.588C136.008 377.228 128.956 374.713 122.138 376.15L57.5124 389.738L38.5017 343.889L93.7937 307.696C99.6374 303.888 102.83 297.149 102.137 290.185C100.997 279.024 100.997 267.654 102.137 256.341C102.83 249.414 99.601 242.696 93.7937 238.868L38.5017 202.69L57.4857 156.884L122.147 170.414C128.85 171.815 135.98 169.352 140.402 163.956C147.553 155.237 155.595 147.196 164.35 140.008C169.725 135.602 172.209 128.586 170.787 121.768L157.293 57.0493L202.913 37.8413L239.257 93.4146C243.064 99.2584 249.934 102.488 256.767 101.758C268.08 100.618 279.45 100.618 290.59 101.758C297.475 102.409 304.235 99.201 308.079 93.3938L344.257 38.1018L390.063 57.0858L376.547 121.747C375.131 128.56 377.61 135.596 382.985 140.023C391.682 147.138 399.745 155.216 406.969 163.992C411.375 169.331 418.411 171.831 425.209 170.414L489.834 156.826L508.839 202.69L453.569 238.868C447.746 242.696 444.532 249.415 445.225 256.357C446.366 267.67 446.366 279.092 445.246 290.237C444.553 297.164 447.782 303.882 453.589 307.71L508.844 343.888L489.899 389.676Z"/>
<path d="M273.626 177.786C261.085 177.786 248.798 180.25 237.132 185.083C213.553 194.828 195.205 213.214 185.424 236.771C175.663 260.364 175.663 286.312 185.424 309.87C200.262 345.708 234.908 368.854 273.7 368.854C286.241 368.854 298.528 366.406 310.21 361.557C358.856 341.395 382.06 285.431 361.899 236.75C347.06 200.933 312.399 177.786 273.628 177.786H273.626ZM299.517 335.693C291.267 339.109 282.569 340.844 273.72 340.844C246.283 340.844 221.808 324.475 211.298 299.141C204.413 282.491 204.392 264.141 211.298 247.469C218.205 230.797 231.178 217.829 247.845 210.939C256.095 207.506 264.777 205.787 273.626 205.787C301.048 205.787 325.539 222.157 336.048 247.47C350.288 281.877 333.902 321.449 299.517 335.694V335.693Z"/>
</svg>
