<svg width="689" height="435" viewBox="0 0 689 435" fill="none" xmlns="http://www.w3.org/2000/svg">
<path d="M687.386 246.987L637.798 30.4802C632.97 9.40156 611.892 -3.82244 590.815 1.0109L550.96 10.1412C529.881 14.9693 516.657 36.0425 521.49 57.1252L522.485 61.4741L507.084 68.172C494.798 73.5157 481.917 72.7761 469.833 66.0313C457.771 59.2865 447.063 53.0053 437.609 47.4633C393.437 21.546 369.109 7.27529 332.265 21.0513C321.911 24.9262 311.629 32.494 301.068 42.4633H168.38C166.01 27.0313 154.495 13.8326 138.375 10.1406L98.5199 1.01036C77.4372 -3.81778 56.3639 9.40103 51.5359 30.4797L1.95723 246.986C-0.376106 257.169 1.41036 267.674 6.98844 276.565C12.5666 285.456 21.2431 291.638 31.4258 293.972L71.2804 303.102C74.1971 303.769 77.1346 304.097 80.0616 304.097C87.348 304.097 94.515 302.045 100.859 298.071C108.036 293.566 113.442 287.05 116.484 279.352L259.631 420.899C268.506 429.774 280.334 434.659 292.948 434.659H292.954C305.568 434.659 317.402 429.768 326.271 420.893C331.302 415.862 335.057 409.873 337.359 403.325L352.021 417.987C360.896 426.862 372.723 431.747 385.338 431.747H385.343C397.958 431.747 409.791 426.856 418.661 417.981C423.754 412.893 427.525 406.83 429.827 400.195C438.234 407.158 448.729 410.934 459.833 410.934H459.838C472.452 410.934 484.286 406.044 493.155 397.169C502.03 388.294 506.915 376.466 506.915 363.852C506.915 362.294 506.837 360.748 506.696 359.216C518.113 358.471 528.723 353.685 536.842 345.56C548.977 333.425 553.092 316.279 549.201 300.727L577.732 288.133C580.617 292.029 584.232 295.399 588.471 298.055C594.82 302.039 601.982 304.081 609.269 304.081C612.191 304.081 615.133 303.753 618.05 303.086L657.905 293.956C668.087 291.623 676.765 285.446 682.342 276.549C687.93 267.68 689.722 257.18 687.389 246.992L687.386 246.987ZM341.68 46.2002C365.42 37.3253 380.368 45.0023 424.029 70.6216C433.597 76.2309 444.43 82.5904 456.742 89.4762C476.133 100.304 497.816 101.487 517.8 92.7992L528.581 88.1117L568.597 262.845L535.4 277.496L413.097 155.173C389.31 131.386 351.977 128.022 324.332 147.168C281.998 176.48 254.014 187.542 227.201 163.537C246.622 145.458 264.728 124.026 280.993 104.761C303.758 77.8078 325.264 52.3398 341.681 46.2038L341.68 46.2002ZM86.5864 275.32C83.7687 277.086 80.4667 277.654 77.2687 276.924L37.414 267.794C34.2266 267.065 31.4974 265.112 29.7214 262.294C27.9558 259.476 27.388 256.174 28.1172 252.976L77.7052 36.4697C79.0125 30.7457 84.1219 26.8656 89.7626 26.8656C90.674 26.8656 91.5959 26.9645 92.523 27.1781L132.378 36.3083C139.018 37.8343 143.19 44.475 141.675 51.1257L92.0866 267.632C91.3574 270.825 89.4043 273.554 86.5866 275.32L86.5864 275.32ZM517.866 326.575C514.064 330.377 508.976 332.471 503.533 332.471C498.09 332.471 493.002 330.377 489.2 326.575L393.845 231.211C388.6 225.966 380.1 225.966 374.861 231.211C369.616 236.456 369.616 244.956 374.861 250.195C374.861 250.195 473.725 349.059 474.184 349.518C477.986 353.32 480.08 358.408 480.08 363.846C480.08 369.288 477.986 374.377 474.184 378.179C470.382 381.981 465.293 384.075 459.85 384.075C454.413 384.075 449.319 381.981 445.522 378.179L342.934 275.611C337.69 270.366 329.189 270.366 323.95 275.611C318.706 280.856 318.706 289.356 323.95 294.595L400.033 370.678C403.616 374.433 405.585 379.381 405.585 384.662C405.585 390.104 403.492 395.193 399.689 398.995C395.887 402.797 390.799 404.891 385.356 404.891C379.919 404.891 374.835 402.797 371.028 398.995L287.725 315.692C282.481 310.447 273.98 310.447 268.741 315.692C263.497 320.937 263.497 329.438 268.741 334.676L307.575 373.51C311.2 377.28 313.2 382.254 313.2 387.562C313.2 393.004 311.106 398.093 307.304 401.895C303.502 405.697 298.413 407.791 292.971 407.791C287.533 407.791 282.45 405.697 278.591 401.843L123.924 248.923L165.06 69.3096H275.909C270.883 75.1065 265.753 81.1793 260.472 87.4402C241.051 110.43 220.977 134.216 199.259 152.414C193.587 157.164 192.837 165.606 197.571 171.288C217.326 195.018 238.358 203.335 258.566 203.335C290.368 203.335 320.128 182.731 339.618 169.236C356.868 157.288 379.279 159.314 394.107 174.143L517.872 297.908C525.774 305.809 525.774 318.673 517.872 326.574L517.866 326.575ZM659.6 262.299C657.834 265.117 655.105 267.064 651.907 267.799L612.052 276.929C608.855 277.658 605.552 277.085 602.735 275.325C599.917 273.559 597.969 270.83 597.235 267.643L547.656 51.1228C546.13 44.4821 550.302 37.831 556.953 36.3054L596.808 27.1752C603.448 25.6596 610.099 29.821 611.625 36.4721L661.213 252.992C661.932 256.19 661.364 259.497 659.598 262.31L659.6 262.299Z"/>
</svg>
