<svg width="700" height="700" viewBox="0 0 700 700" fill="none" xmlns="http://www.w3.org/2000/svg">
<path d="M691.867 644.373H668.273V343.24C668.273 331.36 663.549 319.964 655.148 311.563C646.747 303.161 635.351 298.438 623.471 298.438H522.898V248.266C522.898 238.364 518.96 228.864 511.96 221.864C504.96 214.864 495.466 210.932 485.564 210.932H478.095C476.366 202.166 471.642 194.276 464.735 188.615C457.829 182.948 449.173 179.854 440.241 179.87H357.137V164.938H472.642C476.767 164.938 480.111 161.594 480.111 157.469C480.111 153.344 476.767 150.005 472.642 150.005H461.668C460.116 125.708 450.689 102.584 434.819 84.1254C418.949 65.6721 397.496 52.8854 373.709 47.7094C378.105 41.751 380.126 34.3707 379.387 27.0067C378.642 19.637 375.194 12.8094 369.704 7.84007C364.209 2.87646 357.074 0.126465 349.668 0.126465C342.263 0.126465 335.127 2.87646 329.632 7.84007C324.143 12.8089 320.695 19.637 319.95 27.0067C319.21 34.3713 321.231 41.7521 325.627 47.7094C301.887 52.8709 280.471 65.6107 264.6 84.0121C248.736 102.408 239.283 125.465 237.668 149.705H226.694C222.569 149.705 219.226 153.049 219.226 157.174C219.226 161.299 222.569 164.638 226.694 164.638H342.2V179.57L259.397 179.575C250.465 179.559 241.804 182.648 234.897 188.315C227.99 193.981 223.272 201.872 221.537 210.632H214.068H214.073C204.172 210.632 194.677 214.569 187.672 221.569C180.672 228.569 176.74 238.064 176.74 247.965V298.143H75.8652C63.9849 298.143 52.5892 302.862 44.1879 311.262C35.7868 319.669 31.0628 331.06 31.0628 342.945V644.372H7.46945C3.34439 644.372 0.00585938 647.716 0.00585938 651.841V692.534C0.00585938 694.513 0.792307 696.414 2.18812 697.815C3.58919 699.211 5.49025 699.997 7.46932 699.997H691.869C693.849 699.997 695.75 699.211 697.15 697.815C698.546 696.414 699.333 694.513 699.333 692.534V651.841C699.333 649.861 698.546 647.96 697.15 646.559C695.749 645.158 693.848 644.372 691.869 644.372L691.867 644.373ZM623.471 313.373C631.393 313.373 638.992 316.519 644.591 322.118C650.19 327.722 653.341 335.316 653.341 343.238V644.371H522.898V313.371L623.471 313.373ZM390.364 644.373H308.979V554.029C308.979 539.488 316.734 526.056 329.323 518.784C341.917 511.518 357.427 511.518 370.02 518.784C382.609 526.055 390.364 539.487 390.364 554.029V644.373ZM349.671 14.9333C355.712 14.9333 361.155 18.5687 363.468 24.1521C365.781 29.7302 364.499 36.1521 360.229 40.4227C355.958 44.6934 349.536 45.9749 343.958 43.6623C338.375 41.3498 334.739 35.9071 334.739 29.865C334.739 21.615 341.421 14.933 349.671 14.933L349.671 14.9333ZM349.671 59.7359V59.7307C374.171 59.6578 397.796 68.8558 415.796 85.4761C433.801 102.091 444.853 124.903 446.739 149.331H252.605C254.543 124.945 265.621 102.191 283.621 85.6174C301.616 69.0441 325.209 59.8827 349.673 59.9561L349.671 59.7359ZM259.4 194.803H439.947C444.895 194.823 449.718 196.386 453.733 199.277C457.749 202.167 460.759 206.245 462.348 210.933H236.935C238.523 206.23 241.549 202.152 245.581 199.256C249.612 196.365 254.445 194.808 259.409 194.803L259.4 194.803ZM191.379 248.267C191.379 242.324 193.738 236.626 197.936 232.428C202.139 228.225 207.837 225.865 213.775 225.865H485.561C491.499 225.865 497.197 228.225 501.4 232.428C505.598 236.626 507.957 242.324 507.957 248.267V644.373H405.291V554.029C405.291 534.155 394.692 515.789 377.479 505.852C360.271 495.914 339.063 495.914 321.853 505.852C304.64 515.789 294.041 534.155 294.041 554.029V644.379L191.375 644.373L191.379 248.267ZM45.9921 343.24C45.9921 335.318 49.1432 327.724 54.7421 322.12C60.3411 316.521 67.94 313.375 75.8621 313.375H176.435V644.375H45.9928L45.9921 343.24ZM684.392 685.067H14.9388V659.307H684.392V685.067Z" />
<path d="M318.08 341.373H381.247C383.226 341.373 385.127 340.587 386.528 339.186C387.929 337.785 388.715 335.883 388.715 333.904V270.738C388.715 268.759 387.929 266.857 386.528 265.457C385.127 264.055 383.226 263.269 381.247 263.269H318.08C313.955 263.269 310.611 266.613 310.611 270.738V333.905C310.611 335.884 311.398 337.785 312.799 339.186C314.2 340.587 316.101 341.373 318.08 341.373L318.08 341.373ZM325.549 298.441L325.544 278.201H373.778L373.784 326.436H325.544V298.436L325.549 298.441Z" />
<path d="M217.88 341.373H280.973C282.952 341.373 284.854 340.587 286.254 339.186C287.65 337.785 288.437 335.883 288.437 333.904V270.738C288.437 268.759 287.65 266.857 286.254 265.457C284.853 264.055 282.952 263.269 280.973 263.269H217.88C213.755 263.269 210.411 266.613 210.411 270.738V333.905C210.411 335.884 211.198 337.785 212.599 339.186C214 340.587 215.901 341.373 217.88 341.373L217.88 341.373ZM225.349 278.206L273.505 278.201V326.436H225.349V278.206Z" />
<path d="M143.96 341.52H80.8667C76.7469 341.52 73.4031 344.863 73.4031 348.989V412.155C73.4031 414.134 74.1895 416.035 75.5905 417.436C76.9916 418.837 78.8875 419.624 80.8665 419.624H144.039C146.018 419.624 147.919 418.837 149.315 417.436C150.716 416.035 151.502 414.134 151.502 412.155V348.989C151.502 346.994 150.705 345.082 149.288 343.681C147.872 342.28 145.955 341.504 143.96 341.52H143.96ZM136.491 404.686L88.3352 404.692V356.457H136.57L136.491 404.686Z" />
<path d="M143.96 462.333H80.8667C76.7469 462.333 73.4031 465.677 73.4031 469.802V532.896C73.4031 534.875 74.1895 536.77 75.5905 538.172C76.9916 539.573 78.8875 540.359 80.8665 540.359H144.039C146.018 540.359 147.919 539.573 149.315 538.172C150.716 536.77 151.502 534.875 151.502 532.896V469.802C151.502 467.807 150.705 465.896 149.288 464.495C147.872 463.094 145.955 462.313 143.96 462.333H143.96ZM136.491 525.427H88.3352V477.265H136.57L136.491 525.427Z" />
<path d="M554.707 419.626H617.8C619.779 419.626 621.675 418.84 623.076 417.439C624.477 416.038 625.263 414.137 625.263 412.158V348.991C625.263 347.012 624.477 345.111 623.076 343.71C621.675 342.309 619.779 341.522 617.8 341.522H554.707C550.582 341.522 547.238 344.866 547.238 348.991V412.158C547.238 414.137 548.024 416.038 549.425 417.439C550.826 418.84 552.722 419.627 554.706 419.627L554.707 419.626ZM562.175 356.46H610.337V404.694H562.17L562.175 356.46Z" />
<path d="M554.707 540.067H617.8C619.779 540.067 621.675 539.28 623.076 537.879C624.477 536.478 625.263 534.577 625.263 532.598V469.806C625.263 467.822 624.477 465.926 623.076 464.525C621.675 463.124 619.779 462.337 617.8 462.337H554.707C550.582 462.337 547.238 465.681 547.238 469.806V532.9C547.399 536.905 550.696 540.066 554.707 540.066V540.067ZM562.175 476.973H610.337V525.135H562.17L562.175 476.973Z" />
<path d="M419.4 341.373H482.493C484.472 341.373 486.374 340.587 487.769 339.186C489.17 337.785 489.957 335.883 489.957 333.904V270.738C489.957 268.759 489.17 266.857 487.769 265.457C486.373 264.055 484.472 263.269 482.493 263.269H419.4C415.275 263.269 411.931 266.613 411.931 270.738V333.905C411.931 335.884 412.718 337.785 414.119 339.186C415.52 340.587 417.421 341.373 419.4 341.373L419.4 341.373ZM426.869 278.206H475.03L475.025 326.436H426.864L426.869 278.206Z" />
<path d="M459.653 373.107H241.627C233.595 373.138 226.091 377.117 221.559 383.747C217.022 390.378 216.043 398.815 218.934 406.31C221.824 413.805 228.215 419.399 236.027 421.269V445.014C235.985 452.832 239.141 460.321 244.756 465.759C250.371 471.192 257.964 474.103 265.772 473.806C273.585 473.515 280.933 470.046 286.127 464.202C291.502 470.333 299.257 473.848 307.408 473.848C315.559 473.848 323.315 470.333 328.689 464.202C334.059 470.333 341.815 473.848 349.965 473.848C358.117 473.848 365.872 470.333 371.247 464.202C376.622 470.333 384.377 473.848 392.528 473.848C400.679 473.848 408.435 470.333 413.809 464.202C419.002 470.046 426.351 473.515 434.164 473.806C441.971 474.103 449.565 471.192 455.18 465.759C460.795 460.322 463.946 452.832 463.909 445.014V421.493C472.112 420.206 479.097 414.826 482.431 407.222C485.769 399.618 484.993 390.837 480.384 383.93C475.769 377.024 467.957 372.946 459.654 373.107L459.653 373.107ZM264.773 458.904C257.133 458.862 250.961 452.654 250.961 445.013V421.94H278.664V445.013H278.659C278.622 452.665 272.424 458.863 264.773 458.904H264.773ZM307.409 458.904C299.769 458.862 293.597 452.654 293.597 445.013V421.94H321.223V445.013C321.223 452.654 315.051 458.863 307.411 458.904H307.409ZM349.972 458.904H349.967C342.326 458.862 336.155 452.654 336.155 445.013V421.94H363.78V445.013H363.785C363.785 448.737 362.291 452.305 359.634 454.914C356.983 457.524 353.395 458.961 349.671 458.904H349.972ZM392.535 458.904H392.529C384.889 458.862 378.717 452.654 378.717 445.013V421.94H406.343V445.013C406.343 452.654 400.171 458.863 392.531 458.904H392.535ZM435.171 458.904H435.165C427.494 458.904 421.275 452.685 421.275 445.013V421.94H448.977V445.013C448.977 452.654 442.806 458.863 435.165 458.904H435.171ZM459.66 406.639L241.633 406.634C236.394 406.634 232.149 402.389 232.149 397.154C232.149 391.915 236.394 387.67 241.633 387.67H459.66C464.894 387.67 469.144 391.915 469.144 397.154C469.144 402.389 464.894 406.634 459.66 406.634V406.639Z" />
</svg>
