<svg width="492" height="492" viewBox="0 0 492 492" fill="none" xmlns="http://www.w3.org/2000/svg">
<path d="M0.373361 480C-0.736012 485.307 2.6755 490.51 7.9827 491.619C8.65978 491.76 9.33163 491.828 9.9983 491.828C14.5504 491.828 18.6338 488.645 19.6024 484.01L41.7011 378.078H129.665L151.764 484.01C152.733 488.64 156.811 491.828 161.368 491.828C162.035 491.828 162.706 491.76 163.383 491.619C168.691 490.51 172.102 485.307 170.993 480L147.264 366.25C146.316 361.693 142.3 358.433 137.649 358.433H42.285L19.7223 194.246C18.9775 188.871 13.9983 185.095 8.65457 185.855C3.28484 186.595 -0.475695 191.548 0.263905 196.923L23.7639 367.91L0.373361 480Z" />
<path d="M353.693 358.44C349.042 358.44 345.027 361.7 344.079 366.257L320.349 480.007C319.24 485.314 322.652 490.517 327.959 491.626C328.636 491.767 329.308 491.835 329.974 491.835C334.527 491.835 338.61 488.653 339.579 484.017L361.677 378.085H449.641L471.74 484.017C472.709 488.647 476.787 491.835 481.344 491.835C482.011 491.835 482.683 491.767 483.36 491.626C488.667 490.517 492.078 485.314 490.969 480.007L467.584 367.919L491.084 196.932C491.823 191.557 488.063 186.604 482.693 185.864C477.302 185.109 472.365 188.88 471.625 194.255L449.063 358.442L353.693 358.44Z" />
<path d="M213.946 482.013C213.946 487.435 218.342 491.831 223.764 491.831H267.562C272.983 491.831 277.379 487.435 277.379 482.013L277.385 299.52H364.327C369.749 299.52 374.145 295.124 374.145 289.702V248.785C374.145 243.363 369.749 238.967 364.327 238.967H255.489L255.483 188.259C265.285 186.009 273.734 180.426 279.827 172.832C287.895 182.884 300.13 189.458 313.994 189.458C327.854 189.458 340.087 182.885 348.155 172.832C356.223 182.884 368.458 189.458 382.317 189.458C406.571 189.458 426.306 169.728 426.306 145.474V130.952C426.306 130.791 426.223 130.655 426.212 130.494C426.207 130.338 426.275 130.192 426.259 130.036C426.15 128.744 412.254 0.833008 245.659 0.833008C79.0644 0.833008 65.1791 128.74 65.0591 130.03C65.0435 130.192 65.1164 130.332 65.106 130.489C65.1007 130.65 65.0122 130.78 65.0122 130.947V145.468C65.0122 169.723 84.7415 189.452 109.002 189.452C122.862 189.452 135.095 182.879 143.163 172.827C151.231 182.879 163.466 189.452 177.324 189.452C191.188 189.452 203.423 182.879 211.491 172.827C217.59 180.421 226.032 186.004 235.835 188.254V238.962H126.996C121.574 238.962 117.178 243.358 117.178 248.779V289.697C117.178 295.119 121.574 299.514 126.996 299.514H213.939L213.946 482.013ZM257.744 472.195H233.588V299.529H257.744V472.195ZM338.342 145.475C338.342 158.897 327.421 169.819 313.998 169.819C300.572 169.819 289.649 158.898 289.649 145.475V140.772H338.342V145.475ZM406.671 145.475C406.671 158.897 395.749 169.819 382.321 169.819C368.9 169.819 357.977 158.898 357.977 145.475V140.772H406.671V145.475ZM404.686 121.131H328.525C326.728 100.929 319.202 53.7154 288.915 23.9954C375.218 38.7607 398.629 96.7447 404.686 121.131V121.131ZM133.353 145.475C133.353 158.897 122.431 169.819 109.009 169.819C95.5821 169.819 84.6594 158.898 84.6594 145.475V140.772H133.353V145.475ZM143.176 121.131H86.649C92.7063 96.7461 116.118 38.7621 202.425 23.9954C172.138 53.7141 164.613 100.922 162.81 121.131H143.176ZM201.686 145.475C201.686 158.897 190.764 169.819 177.337 169.819C163.916 169.819 152.993 158.898 152.993 145.475V140.772H201.686V145.475ZM211.509 121.131H182.583C185.119 96.6421 196.479 34.6314 245.671 20.9701C294.723 34.6007 306.165 96.6261 308.744 121.131H211.509ZM221.327 145.475V140.772H270.015V145.475C270.015 158.897 259.093 169.819 245.671 169.819C232.249 169.819 221.327 158.898 221.327 145.475V145.475ZM136.832 279.889V258.613H354.512V279.889H136.832Z" />
</svg>
