<svg width="747" height="748" viewBox="0 0 747 748" fill="none" xmlns="http://www.w3.org/2000/svg">
<path d="M722.907 581.28V121.426H650.647V217.771H624.344C625.698 213.989 626.563 209.963 626.563 205.724C626.563 159.25 588.735 121.421 542.26 121.421C495.786 121.421 457.958 159.249 457.958 205.724C457.958 209.963 458.822 213.984 460.171 217.765L433.874 217.77V121.426H361.614V579.066H325.171C332.822 568.973 337.53 556.54 337.53 542.936C337.53 527.17 327.333 513.889 313.228 508.962C313.29 508.238 313.447 507.541 313.447 506.806C313.447 466.957 281.04 434.546 241.187 434.546C216.067 434.546 193.932 447.442 180.973 466.942C168.015 447.431 145.88 434.546 120.76 434.546C80.9105 434.546 48.4999 466.953 48.4999 506.806C48.4999 507.54 48.6561 508.238 48.7186 508.962C34.6146 513.884 24.4159 527.17 24.4159 542.936C24.4159 556.545 29.1242 568.972 36.7701 579.066L36.4576 579.061C16.5402 579.061 0.326904 595.269 0.326904 615.192V747.665H746.994V615.192C746.994 599.515 736.889 586.265 722.906 581.28H722.907ZM698.824 145.52V579.067H674.736V145.52H698.824ZM650.652 530.893H624.349C625.698 527.112 626.563 523.091 626.563 518.852C626.563 472.378 588.735 434.549 542.26 434.549C495.786 434.549 457.958 472.377 457.958 518.852C457.958 523.091 458.822 527.112 460.171 530.893H433.874V290.04H650.647L650.652 530.893ZM482.052 518.852C482.052 499.258 491.604 481.988 506.14 470.992V506.809H530.228V459.856C534.114 459.059 538.15 458.637 542.27 458.637C546.389 458.637 550.421 459.059 554.311 459.856V506.809H578.399V470.992C592.935 481.997 602.487 499.268 602.487 518.852C602.487 525.497 597.091 530.893 590.446 530.893H494.102C487.445 530.893 482.05 525.497 482.05 518.852H482.052ZM494.099 554.982H650.659V579.07L433.886 579.065V554.977L494.099 554.982ZM482.052 205.729C482.052 186.136 491.604 168.865 506.14 157.869V193.686H530.228V146.733C534.114 145.936 538.15 145.514 542.27 145.514C546.389 145.514 550.421 145.936 554.311 146.733V193.686H578.399V157.869C592.935 168.874 602.487 186.145 602.487 205.729C602.487 212.375 597.091 217.771 590.446 217.771H494.102C487.445 217.776 482.05 212.38 482.05 205.729H482.052ZM494.099 241.86H650.659V265.948H433.886V241.86H494.099ZM385.708 145.516H409.796V579.062H385.708V145.516ZM229.148 460.342V482.717H253.236V460.342C273.96 465.728 289.367 484.416 289.367 506.806H193.023C193.018 484.416 208.424 465.728 229.148 460.342ZM108.716 460.342V482.717H132.804V460.342C153.528 465.728 168.935 484.416 168.935 506.806H72.591C72.591 484.416 87.9923 465.728 108.716 460.342ZM48.503 542.936C48.503 536.29 53.8989 530.894 60.5446 530.894H301.398C308.044 530.894 313.44 536.29 313.44 542.936C313.44 562.853 297.232 579.066 277.309 579.066L84.6289 579.061C64.7075 579.061 48.4982 562.853 48.4982 542.936L48.503 542.936ZM722.903 723.576H24.4096V615.19C24.4096 608.544 29.8055 603.149 36.4513 603.149H710.851C717.497 603.149 722.893 608.545 722.893 615.19L722.903 723.576Z" />
<path d="M602.48 350.24C602.48 356.886 597.084 362.282 590.439 362.282H578.397C565.116 362.282 554.309 373.084 554.309 386.37V410.458H578.397V386.37H590.439C610.356 386.37 626.569 370.162 626.569 350.239C626.569 330.322 610.361 314.108 590.439 314.108H542.267V338.196H590.439C597.084 338.196 602.48 343.592 602.48 350.238V350.24Z" />
<path d="M494.093 386.373H506.135V410.461H530.223V386.373C530.223 373.092 519.421 362.285 506.135 362.285H494.093C487.447 362.285 482.052 356.89 482.052 350.244C482.052 343.598 487.448 338.202 494.093 338.202H518.181V314.114H494.093C474.176 314.114 457.963 330.322 457.963 350.245C457.963 370.168 474.171 386.376 494.093 386.376V386.373Z" />
<path d="M578.4 73.2599H590.442C610.359 73.2599 626.572 57.0519 626.572 37.1292C626.572 17.2119 610.364 0.998535 590.442 0.998535H554.311V25.0865H590.442C597.088 25.0865 602.483 30.4824 602.483 37.1281C602.483 43.7739 597.087 49.1697 590.442 49.1697H578.4C565.119 49.1697 554.312 59.9719 554.312 73.2577V97.3457H578.4V73.2599Z" />
<path d="M494.093 73.2597H506.135V97.3477H530.223L530.218 73.2597C530.218 59.9785 519.416 49.1717 506.13 49.1717H494.088C487.442 49.1717 482.047 43.7758 482.047 37.1301C482.047 30.4844 487.442 25.0885 494.088 25.0885H530.219V1.00049H494.088C474.171 1.00049 457.958 17.2085 457.958 37.1312C457.963 57.0485 474.171 73.2618 494.094 73.2618L494.093 73.2597Z" />
<path d="M72.6 627.24H48.512V699.5H96.684V675.412H72.6013L72.6 627.24Z" />
<path d="M120.76 675.4H144.848V699.488H120.76V675.4Z" />
<path d="M313.453 350.24C313.453 356.886 308.057 362.282 301.412 362.282H265.281C245.364 362.282 229.15 378.49 229.15 398.412V410.454H253.238V398.412C253.238 391.766 258.634 386.371 265.28 386.371H301.411C321.328 386.371 337.541 370.163 337.541 350.24C337.541 330.323 321.333 314.109 301.411 314.109H205.067V338.197H301.411C308.057 338.197 313.452 343.593 313.452 350.239L313.453 350.24Z" />
<path d="M36.464 386.373H96.6773C103.323 386.373 108.719 391.769 108.719 398.415V410.456H132.807V398.415C132.807 378.497 116.599 362.284 96.6763 362.284L36.4629 362.289C29.8171 362.289 24.4213 356.893 24.4213 350.248C24.4213 343.602 29.8172 338.206 36.4629 338.206H96.6763V314.118C96.6763 294.201 112.884 277.987 132.807 277.987H144.849V253.899H132.807C99.6043 253.899 72.5936 280.91 72.5936 314.113L36.4629 314.118C16.5456 314.118 0.332275 330.326 0.332275 350.249C0.332275 370.166 16.5403 386.374 36.4629 386.374L36.464 386.373Z" />
<path d="M168.933 253.907H193.021V277.995H168.933V253.907Z" />
</svg>
