<svg width="635" height="724" viewBox="0 0 635 724" fill="none" xmlns="http://www.w3.org/2000/svg">
<path d="M609.067 569.693C601.228 522.688 568.269 484.12 523.061 469.048L422.671 435.584V420.663H399.337V442.575L387.098 491.507C383.421 492.194 379.806 493.21 376.467 494.876L370.134 498.048L334.811 455.663H300.535L265.207 498.048L258.874 494.876C255.525 493.21 251.921 492.184 248.244 491.507L236.004 442.575V420.663H212.671V435.584L112.291 469.043C67.0829 484.116 34.1243 522.688 26.2856 569.688L0.5616 723.995H634.775L609.067 569.693ZM352.667 532.871L386.907 515.756C389.209 514.6 391.787 513.996 394.355 513.996C403.532 513.996 411 521.464 411 530.641V567.344C411 576.526 403.531 583.994 394.355 583.994C391.776 583.994 389.209 583.39 386.901 582.234L352.667 565.119L352.667 532.871ZM311.473 478.996H323.864L348.676 508.783L338.244 513.996H297.098L286.656 508.767L311.473 478.996ZM329.333 537.329V560.663H306V537.329H329.333ZM282.667 532.871V565.116L248.427 582.231C246.125 583.392 243.546 583.996 240.979 583.996C231.802 583.996 224.333 576.528 224.333 567.351V530.648C224.333 521.466 231.802 513.998 240.979 513.998C243.557 513.998 246.125 514.602 248.432 515.758L282.667 532.871ZM49.28 573.543C55.6759 535.194 82.5093 503.74 119.327 491.33L119.374 594.512L108.759 700.679L28.103 700.674L49.28 573.543ZM269.453 700.663L259.224 629.007L236.125 632.309L245.875 700.664H132.219L142.662 595.664V483.524L216.069 459.045L224.84 494.128C210.829 500.346 200.996 514.346 200.996 530.644V567.346C200.996 589.388 218.928 607.33 240.974 607.33C247.146 607.33 253.339 605.872 258.86 603.106L297.084 583.997H338.229L376.448 603.106C381.989 605.872 388.177 607.33 394.349 607.33C416.396 607.33 434.328 589.388 434.328 567.352V530.649C434.328 514.352 424.505 500.352 410.478 494.133L419.249 459.05L492.661 483.524L492.718 596.83L503.104 700.664H389.448L399.213 632.32L376.115 629.018L365.87 700.663H269.453ZM526.547 700.663L515.989 595.663V491.33C552.807 503.741 579.64 535.194 586.036 573.543L607.213 700.663H526.547Z" />
<path d="M171.16 315.013C177.108 335.487 188.097 354.259 203.592 369.753L249.081 415.253C260.097 426.264 274.748 432.332 290.336 432.332H345.008C360.596 432.332 375.248 426.264 386.263 415.253L431.752 369.753C447.247 354.259 458.225 335.477 464.184 315.013C493.252 311.722 516.001 287.268 516.001 257.331C516.001 238.185 506.6 221.304 492.308 210.664H492.667V175.664C492.667 79.1694 414.162 0.664062 317.667 0.664062C221.173 0.664062 142.667 79.1694 142.667 175.664V200.992C142.667 204.154 142.844 207.278 143.157 210.383C128.354 221.315 119.334 238.732 119.334 257.331C119.334 287.268 142.084 311.721 171.157 315.013H171.16ZM415.253 353.253L369.764 398.753C363.155 405.358 354.368 408.998 345.009 408.998H290.337C280.983 408.998 272.187 405.358 265.583 398.753L220.093 353.253C200.271 333.42 189.339 307.056 189.339 279.008L189.344 268.998C189.344 243.263 210.276 222.331 236.011 222.331H272.923C304.001 222.331 335.116 214.982 362.917 201.086L384.209 190.435C399.736 208.789 421.939 220.071 446.007 221.945V279.008C446.012 307.055 435.079 333.42 415.257 353.253L415.253 353.253ZM468.795 290.347C469.118 286.602 469.342 282.821 469.342 279.008V224.478C482.888 229.306 492.675 242.139 492.675 257.332C492.675 272.723 482.618 285.682 468.795 290.348L468.795 290.347ZM166.008 175.664C166.008 92.0387 234.049 23.9974 317.675 23.9974C401.3 23.9974 469.341 92.0387 469.341 175.664V200.175C465.571 199.404 461.664 198.998 457.675 198.998H453.065C430.628 198.998 409.815 187.857 397.377 169.191L391.674 160.628L352.486 180.216C327.902 192.498 300.408 198.998 272.918 198.998H236.006C209.85 198.998 187.028 213.44 175.028 234.743C169.179 224.571 166.007 213.046 166.007 200.994L166.008 175.664ZM149.872 236.576C153.815 245.899 159.403 254.508 166.356 262.185C166.137 264.435 166.007 266.701 166.007 268.998V279.008C166.007 282.821 166.231 286.602 166.554 290.362C152.731 285.68 142.674 272.722 142.674 257.332C142.674 249.702 145.429 242.55 149.872 236.577L149.872 236.576Z" />
<path d="M306 654H329.333V677.333H306V654Z" />
<path d="M306 607.333H329.333V630.667H306V607.333Z" />
</svg>
