<svg width="561" height="695" viewBox="0 0 561 695" fill="none" xmlns="http://www.w3.org/2000/svg">
<path d="M406.373 201.44C366.097 201.44 333.343 168.867 333.343 128.82C333.343 88.7735 366.097 56.2002 406.373 56.2002C446.649 56.2002 479.404 88.7735 479.404 128.82C479.404 168.872 446.649 201.44 406.373 201.44ZM406.373 76.6802C377.456 76.6802 353.931 100.071 353.931 128.826C353.931 157.575 377.457 180.971 406.373 180.971C435.289 180.971 458.816 157.58 458.816 128.826C458.811 100.071 435.285 76.6802 406.373 76.6802Z" />
<path d="M375.24 136.28C372.204 136.28 369.23 136.082 366.334 135.702C347.672 133.244 335.547 124.103 336.151 112.947C336.474 107.307 340.776 102.833 346.99 103.291C351.734 103.551 355.557 106.953 356.5 111.369C359.979 113.911 372.787 117.885 386.12 114.427C399.292 110.968 407.557 101.692 410.713 86.8332C412.38 82.0155 417.713 78.2968 422.698 79.1977C427.724 80.1561 431.567 83.7551 431.286 88.854C431.068 93.1717 435.953 104.927 444.255 110.385C449.141 113.624 454.005 113.822 459.578 111.103C464.703 108.645 470.838 110.702 473.354 115.801C475.849 120.879 473.734 127.02 468.63 129.499C456.546 135.379 443.838 134.655 432.916 127.478C428.088 124.301 423.89 119.999 420.469 115.243C409.104 130.483 391.51 136.279 375.239 136.279L375.24 136.28ZM356.704 114.051V114.072V114.051Z" />
<path d="M532.107 694.12H532.044L441.075 694.021C440.794 694.021 440.491 694 440.189 693.979L292.416 694.12C277.749 694.818 264.807 682.505 264.203 667.609C259.567 554.401 298.364 434.436 363.031 361.982C367.473 354.586 350.041 312.237 324.667 272.789C323.141 270.43 322.656 267.549 323.339 264.81C324.021 262.091 325.792 259.773 328.245 258.372C358.349 241.279 390.557 244.118 412.234 264.57C433.87 244.117 466.062 241.278 496.245 258.372C498.677 259.773 500.448 262.091 501.13 264.81C501.813 267.549 501.333 270.429 499.802 272.789C474.448 312.258 456.996 354.586 462.48 363.382C526.12 434.461 564.912 554.422 560.286 667.609C559.692 682.484 547.302 694.12 532.104 694.12H532.107ZM442.304 673.546L532.085 673.645C536.148 673.645 539.565 670.567 539.705 666.765C544.148 558.598 507.372 444.285 446.044 375.578C431.262 352.125 460.18 298.218 476.346 271.568C458.57 264.771 437.477 265.307 422.434 283.667C421.789 285.708 420.487 287.568 418.596 288.906C416.684 290.265 414.674 290.703 412.242 290.807C409.908 290.687 407.82 290.266 405.908 288.906C404.018 287.568 402.731 285.708 402.07 283.667C387.007 265.312 365.934 264.792 348.158 271.588C364.325 298.203 393.361 351.943 379.486 374.176C317.111 444.275 280.35 558.576 284.778 666.776C284.929 670.573 288.335 673.657 292.377 673.657H292.398L441.371 673.516C441.694 673.516 441.996 673.537 442.298 673.558L442.304 673.546Z" />
<path d="M531.573 294.853H508.251C502.558 294.853 497.954 290.275 497.954 284.613C497.954 278.957 502.558 274.374 508.251 274.374H521.282V168.207C521.282 109.067 494.517 39.9831 419.094 39.9831L403.083 39.9883C327.657 39.9883 300.895 109.067 300.895 168.212V274.379H313.906C319.598 274.379 324.203 278.957 324.203 284.619C324.203 290.275 319.598 294.858 313.906 294.858H290.599C284.906 294.858 280.302 290.28 280.302 284.619V168.212C280.302 94.1906 318.266 19.5186 403.083 19.5186H419.089C503.906 19.5186 541.87 94.1959 541.87 168.212V284.619C541.87 290.275 537.266 294.853 531.573 294.853H531.573Z" />
<path d="M481.88 413.96C481.255 413.96 480.635 413.897 480.01 413.798C474.422 412.777 470.719 407.46 471.724 401.882L496.557 266.055C500.276 246.94 490.463 228.066 472.729 220.05C468.547 218.169 464.104 216.992 459.537 216.55L415.802 212.268L406.594 212.31L363.886 216.55C359.302 216.987 354.839 218.169 350.656 220.07C332.922 228.07 323.13 246.94 326.85 265.934L353.735 399.414C354.86 404.972 351.24 410.352 345.672 411.472C340.141 412.612 334.673 408.993 333.547 403.456L306.635 269.909C301.083 241.497 315.703 213.347 342.146 201.409C348.422 198.592 355.037 196.831 361.87 196.149L405.583 191.868L416.802 191.826L461.542 196.144C468.36 196.826 474.974 198.581 481.23 201.384C507.694 213.342 522.309 241.472 516.804 269.821L491.997 405.554C491.091 410.497 486.747 413.955 481.882 413.955L481.88 413.96Z" />
<path d="M345.667 650.827C320.875 650.827 297.188 640.587 276.333 620.113C272.281 616.155 272.24 609.676 276.234 605.64C280.224 601.64 286.729 601.562 290.792 605.562C333.901 647.848 378.261 628.535 407.86 604.864C411.521 601.947 416.667 601.864 420.469 604.624C465.109 637.655 503.152 637.895 536.855 605.484C540.938 601.567 547.453 601.666 551.412 605.723C555.375 609.781 555.25 616.26 551.172 620.197C523.506 646.827 477.656 668.743 414.532 625.577C391.511 642.41 368.126 650.828 345.663 650.828L345.667 650.827Z" />
<path d="M137.307 173.626C97.1187 173.626 64.4268 141.116 64.4268 101.148C64.4268 90.7727 66.5361 80.913 70.7079 71.877L89.4266 80.4343C86.4995 86.7728 85.0152 93.7312 85.0152 101.148C85.0152 129.82 108.474 153.153 137.307 153.153C166.26 153.153 189.818 129.82 189.818 101.148C189.818 94.1476 188.422 87.293 185.667 80.7156L204.667 72.8354C208.479 81.9135 210.406 91.4287 210.406 101.147C210.412 141.117 177.614 173.626 137.308 173.626L137.307 173.626Z" />
<path d="M209.787 441.64H60.8667C55.174 441.64 50.5697 437.061 50.5697 431.4V413.145H10.9657C8.1116 413.145 5.38759 411.968 3.44492 409.885C1.49705 407.828 0.497067 405.046 0.689734 402.208L10.9867 252.235C17.8512 205.047 54.904 171.38 99.1693 171.38H171.476C215.731 171.38 252.783 205.052 259.559 251.459L265.84 402.499C265.96 405.28 264.923 407.999 262.986 410.014C261.043 412.014 258.361 413.155 255.553 413.155H220.075V431.409C220.08 437.066 215.476 441.644 209.783 441.644L209.787 441.64ZM71.16 421.166H199.488V404.77C199.379 404.151 199.316 403.531 199.316 402.89L199.488 310.239C199.498 304.599 204.103 300.021 209.785 300.021H209.795C215.478 300.021 220.082 304.599 220.082 310.26V392.676H244.836L239.097 253.356C233.899 218.168 205.414 191.856 171.482 191.856H99.1755C65.2328 191.856 36.7488 218.168 31.4515 254.419L21.9879 392.672H50.5719V310.256C50.5719 304.6 55.176 300.017 60.8583 300.017H60.8687C66.551 300.017 71.1551 304.595 71.1656 310.235L71.3375 402.886C71.3375 403.527 71.275 404.146 71.1656 404.766L71.16 421.166Z" />
<path d="M134.813 341.307C107.021 341.307 84.412 318.833 84.412 291.203V181.615C84.412 175.958 89.0161 171.375 94.7089 171.375H174.917C180.61 171.375 185.214 175.953 185.214 181.615V291.203C185.214 318.833 162.605 341.307 134.813 341.307H134.813ZM105.007 191.853V291.203C105.007 307.536 118.376 320.833 134.819 320.833C151.256 320.833 164.631 307.536 164.631 291.203V191.853H105.007Z" />
<path d="M115.413 229.693C114.528 229.693 113.632 229.474 112.84 229.011C111.252 228.089 110.268 226.391 110.268 224.573V201.661C110.268 199.843 111.252 198.14 112.84 197.224C114.429 196.302 116.398 196.302 117.986 197.224L137.956 208.682C139.544 209.604 140.529 211.302 140.529 213.12C140.529 214.937 139.544 216.64 137.956 217.557L117.986 229.015C117.195 229.469 116.299 229.692 115.413 229.692V229.693ZM120.559 210.516V215.713L125.085 213.114L120.559 210.516Z" />
<path d="M154.987 229.694C154.101 229.694 153.206 229.475 152.414 229.011L132.455 217.553C130.867 216.631 129.882 214.933 129.882 213.116C129.882 211.298 130.867 209.595 132.455 208.678L152.414 197.22C154.002 196.298 155.971 196.298 157.56 197.22C159.148 198.142 160.133 199.839 160.133 201.657V224.569C160.133 226.387 159.148 228.09 157.56 229.007C156.763 229.47 155.872 229.694 154.987 229.694V229.694ZM145.325 213.115L149.841 215.714V210.516L145.325 213.115Z" />
<path d="M193.867 693.453H77.8361C72.4246 693.453 67.935 689.297 67.5601 683.916L50.2481 432.41C49.8679 426.769 54.1492 421.894 59.821 421.493C65.7533 421.212 70.42 425.394 70.8002 431.009L87.4509 672.982H184.18L198.847 431.089C199.201 425.433 204.316 421.031 209.748 421.49C215.42 421.828 219.743 426.688 219.399 432.328L204.148 683.835C203.825 689.236 199.32 693.455 193.867 693.455L193.867 693.453Z" />
<path d="M135.307 692.92C129.614 692.92 125.01 688.342 125.01 682.68V481.84C125.01 476.184 129.614 471.601 135.307 471.601C141 471.601 145.604 476.179 145.604 481.84V682.68C145.604 688.336 141 692.915 135.307 692.915V692.92Z" />
<path d="M134.813 251.226C129.412 251.226 125.022 246.867 125.022 241.487C125.022 236.106 129.417 231.747 134.813 231.747C140.214 231.747 144.605 236.106 144.605 241.487C144.61 246.867 140.214 251.226 134.813 251.226ZM134.313 241.492C134.313 241.773 134.543 241.992 134.819 241.992L134.313 241.492Z" />
<path d="M134.813 278.507C129.412 278.507 125.022 274.147 125.022 268.767C125.022 263.387 129.417 259.027 134.813 259.027C140.214 259.027 144.605 263.387 144.605 268.767C144.61 274.147 140.214 278.507 134.813 278.507ZM134.313 268.772C134.313 269.053 134.543 269.272 134.819 269.272L134.313 268.772Z" />
<path d="M134.813 305.773C129.412 305.773 125.022 301.414 125.022 296.034C125.022 290.653 129.417 286.294 134.813 286.294C140.214 286.294 144.605 290.653 144.605 296.034C144.61 301.414 140.214 305.773 134.813 305.773ZM134.313 296.034C134.313 296.315 134.532 296.534 134.819 296.534L134.313 296.034Z" />
<path d="M70.9867 450.067H46.3933C21.42 450.067 1.10132 428.874 1.10132 402.822V392.566L70.9867 392.665V450.067ZM23.5706 413.078C27.2894 422.755 36.1176 429.594 46.3933 429.594H50.3933V413.099L23.5706 413.078Z" />
<path d="M220.96 450.067H198.528L199.554 392.665L265.486 392.566V402.822C265.486 428.868 245.513 450.067 220.959 450.067L220.96 450.067ZM219.481 429.593H220.96C230.913 429.593 239.471 422.755 243.069 413.077L219.783 413.098L219.481 429.593Z" />
<path d="M91.72 87.9787L83.8398 87.4005C74.97 86.7182 66.4958 82.1245 59.9704 74.4421C51.585 64.6036 47.2621 51.0875 48.4079 38.3328C48.5798 36.4317 49.2829 33.5724 50.4287 32.0568C67.7314 9.1448 113.158 -2.47386 144.617 1.18747C162.471 3.22907 175.966 9.94267 183.423 20.3235C190.684 21.5631 197.235 25.3808 202.335 31.4016C212.085 42.9172 215.83 61.5949 211.867 78.9696C210.752 83.8863 206.377 86.8863 201.341 86.9488H200.986L91.72 87.9787ZM68.8654 42.0307C69.0685 49.6504 71.5998 56.4267 75.6831 61.224C77.3914 63.224 80.9331 66.6407 85.4279 67L92.4175 67.5417L192.798 66.5417C193.1 57.9635 190.85 49.6043 186.594 44.5883C184.271 41.8487 181.949 40.8071 179.969 40.4686C177.245 41.13 174.261 40.7082 171.798 39.0467C169.808 37.729 168.308 35.7498 167.527 33.5259C162.824 25.0885 149.813 22.3905 142.272 21.5311C116.241 18.3749 81.928 28.3541 68.8654 42.0311V42.0307Z" />
<path d="M115.573 82.7184C112.829 82.7184 110.084 81.6194 108.053 79.4788L70.0887 39.0881C66.2084 34.9474 66.4272 28.4736 70.5834 24.6148C74.7241 20.7762 81.2397 20.995 85.1301 25.0939L123.094 65.4846C126.974 69.6253 126.756 76.0991 122.599 79.9579C120.62 81.7965 118.094 82.7183 115.573 82.7183L115.573 82.7184Z" />
<path d="M164.067 80.2973C161.311 80.2973 158.567 79.1984 156.546 77.0577L105.213 22.4377C101.332 18.297 101.551 11.8232 105.707 7.96438C109.838 4.10505 116.384 4.32371 120.254 8.44355L171.587 63.0689C175.468 67.2096 175.249 73.6834 171.093 77.5422C169.113 79.3808 166.587 80.2974 164.067 80.2974L164.067 80.2973Z" />
</svg>
