<svg xmlns="http://www.w3.org/2000/svg" width="312" height="250" viewBox="0 0 312 250"><defs><linearGradient id="khc0a" x1="250" x2="62.43" y1="249.74" y2="0" gradientUnits="userSpaceOnUse"><stop offset="0" stop-color="#a2ec93"/><stop offset="1" stop-color="#37b16b"/></linearGradient></defs><g><g><path fill="#00d655" d="M2-.001h310l-4 244s-66.548 21.245-113-18c-32-27.035-20.31-75.9-46-108-26.185-32.719-95.082-22.928-126-43-31.097-20.188-21-75-21-75z"/><path fill="url(#khc0a)" d="M2-.001h310l-4 244s-66.548 21.245-113-18c-32-27.035-20.31-75.9-46-108-26.185-32.719-95.082-22.928-126-43-31.097-20.188-21-75-21-75z"/></g></g></svg>